<svg width="24" height="24" viewBox="0 0 24 24" fill="none" xmlns="http://www.w3.org/2000/svg">
<path d="M6.00012 2.00116C5.46969 2.00116 4.96098 2.21187 4.58591 2.58695C4.21084 2.96202 4.00012 3.47073 4.00012 4.00116V20.0012C4.00012 20.5316 4.21084 21.0403 4.58591 21.4154C4.96098 21.7904 5.46969 22.0012 6.00012 22.0012H18.0001C18.5306 22.0012 19.0393 21.7904 19.4143 21.4154C19.7894 21.0403 20.0001 20.5316 20.0001 20.0012V8.00116L14.0001 2.00116H6.00012ZM6.00012 4.00116H13.0001V9.00116H18.0001V20.0012H6.00012V4.00116ZM8.00012 12.0012V14.0012H16.0001V12.0012H8.00012ZM8.00012 16.0012V18.0012H13.0001V16.0012H8.00012Z" fill="white"/>
</svg>
