<svg width="24" height="24" viewBox="0 0 24 24" fill="none" xmlns="http://www.w3.org/2000/svg">
<g clip-path="url(#clip0_195_43)">
<path d="M24 0H0V24H24V0Z" fill="white" fill-opacity="0.01"/>
<path d="M5.83885 10.1355C3.63738 10.659 2 12.6383 2 15C2 17.7614 4.23857 20 7 20C7.4737 20 7.932 19.9341 8.36625 19.811" stroke="white" stroke-width="2" stroke-linecap="round" stroke-linejoin="round"/>
<path d="M18.0273 10.1355C20.2288 10.659 21.8662 12.6383 21.8662 15C21.8662 17.7614 19.6276 20 16.8662 20C16.3925 20 15.9342 19.9341 15.4999 19.811" stroke="white" stroke-width="2" stroke-linecap="round" stroke-linejoin="round"/>
<path d="M18 10C18 6.6863 15.3137 4 12 4C8.6863 4 6 6.6863 6 10" stroke="white" stroke-width="2" stroke-linecap="round" stroke-linejoin="round"/>
<path d="M8.53271 15.0595L12 18.5382L15.5659 15" stroke="white" stroke-width="2" stroke-linecap="round" stroke-linejoin="round"/>
<path d="M12 10V16.7691" stroke="white" stroke-width="2" stroke-linecap="round" stroke-linejoin="round"/>
</g>
<defs>
<clipPath id="clip0_195_43">
<rect width="24" height="24" fill="white"/>
</clipPath>
</defs>
</svg>
