<svg width="24" height="24" viewBox="0 0 24 24" fill="none" xmlns="http://www.w3.org/2000/svg">
<path d="M10.3919 19.0858C10.3919 18.9635 10.365 18.8428 10.3131 18.7322C10.2613 18.6215 10.1857 18.5236 10.0918 18.4454C9.99785 18.3672 9.88787 18.3106 9.76965 18.2797C9.65142 18.2487 9.52783 18.2441 9.40763 18.2663C8.31673 18.4665 6.93937 18.4966 6.57316 17.4679C6.25383 16.6713 5.72489 15.9759 5.0424 15.4554C4.99371 15.4289 4.9473 15.3985 4.90365 15.3643C4.84392 15.2067 4.73783 15.071 4.59937 14.9749C4.46091 14.8789 4.29659 14.8271 4.12809 14.8264H4.12402C3.90369 14.8263 3.6923 14.9135 3.53612 15.0689C3.37994 15.2243 3.29169 15.4353 3.29069 15.6556C3.28743 16.3351 3.96652 16.7705 4.24202 16.9178C4.56689 17.2442 4.82798 17.6284 5.01188 18.0506C5.31543 18.9035 6.19759 20.1974 8.7334 20.0306C8.73423 20.0599 8.73502 20.0876 8.73543 20.1128L8.73909 20.3358C8.73909 20.5568 8.82689 20.7688 8.98317 20.9251C9.13945 21.0813 9.35141 21.1691 9.57242 21.1691C9.79344 21.1691 10.0054 21.0813 10.1617 20.9251C10.318 20.7688 10.4058 20.5568 10.4058 20.3358L10.4017 20.0705C10.3976 19.9126 10.3919 19.6839 10.3919 19.0858ZM19.2811 6.48076C19.3075 6.3766 19.3336 6.26104 19.3564 6.13083C19.4911 5.20215 19.3737 4.25432 19.0162 3.38666C18.9711 3.27355 18.9018 3.17167 18.8132 3.08816C18.7245 3.00466 18.6187 2.94155 18.5031 2.90327C18.2064 2.80317 17.1111 2.60623 15.0164 3.94494C13.2751 3.53518 11.4626 3.53518 9.72137 3.94494C7.63517 2.62584 6.54549 2.80484 6.25171 2.89924C6.13326 2.93597 6.02454 2.99874 5.9335 3.08295C5.84246 3.16716 5.77142 3.27067 5.72558 3.3859C5.36083 4.27022 5.24462 5.23738 5.38948 6.18294C5.40983 6.28954 5.4318 6.38802 5.45459 6.47835C4.76423 7.39788 4.39652 8.51948 4.40845 9.66926C4.4062 9.92579 4.41802 10.1823 4.44385 10.4375C4.72218 14.2729 7.22218 15.4245 8.96411 15.82C8.9279 15.9242 8.89494 16.0356 8.86564 16.1536C8.81342 16.3681 8.84837 16.5944 8.96281 16.7831C9.07725 16.9718 9.26184 17.1074 9.47612 17.1602C9.69039 17.213 9.91685 17.1786 10.1058 17.0647C10.2948 16.9508 10.4309 16.7665 10.4843 16.5524C10.5373 16.2747 10.6732 16.0197 10.8741 15.8208C10.9956 15.7145 11.0835 15.5751 11.1272 15.4197C11.171 15.2643 11.1686 15.0995 11.1204 14.9455C11.0722 14.7914 10.9803 14.6547 10.8558 14.5519C10.7313 14.4491 10.5796 14.3847 10.4192 14.3665C7.54078 14.0378 6.29117 12.8651 6.10319 10.2845C6.08237 10.0801 6.073 9.87471 6.07512 9.66927C6.06175 8.84982 6.33247 8.051 6.84131 7.40853C6.89244 7.34155 6.94689 7.27717 7.00447 7.21565C7.1065 7.10149 7.1751 6.96142 7.20274 6.81082C7.23037 6.66023 7.21598 6.50493 7.16114 6.36198C7.10492 6.21159 7.06163 6.05667 7.03175 5.89892C6.96386 5.45035 6.98613 4.99275 7.09725 4.55289C7.82153 4.75745 8.50318 5.09042 9.10975 5.53595C9.21006 5.60277 9.32356 5.64723 9.44256 5.66632C9.56156 5.68542 9.68327 5.67871 9.79945 5.64664C11.4837 5.18955 13.2594 5.18984 14.9435 5.64747C15.0603 5.6795 15.1827 5.68583 15.3021 5.66603C15.4216 5.64622 15.5354 5.60074 15.6356 5.53273C16.2394 5.08534 16.9182 4.74939 17.64 4.5407C17.7507 4.97 17.7754 5.41692 17.7129 5.8558C17.6827 6.02875 17.6355 6.1983 17.5721 6.36199C17.5172 6.50495 17.5028 6.66025 17.5305 6.81084C17.5581 6.96144 17.6267 7.1015 17.7287 7.21567C17.793 7.2881 17.8573 7.36622 17.9151 7.43946C18.4203 8.07106 18.6865 8.86069 18.6667 9.66926C18.6682 9.8856 18.6577 10.1019 18.6353 10.317C18.4518 12.8634 17.1973 14.0369 14.3055 14.3665C14.145 14.3848 13.9934 14.4493 13.8689 14.5522C13.7444 14.6551 13.6525 14.7919 13.6044 14.946C13.5562 15.1002 13.5539 15.265 13.5977 15.4204C13.6415 15.5759 13.7295 15.7153 13.851 15.8216C14.0582 16.0258 14.1944 16.2911 14.2396 16.5784C14.2959 16.8015 14.3218 17.0312 14.3165 17.2612V19.2062C14.3083 19.7458 14.3083 20.1502 14.3083 20.3358C14.3083 20.5568 14.3961 20.7687 14.5524 20.925C14.7087 21.0813 14.9207 21.1691 15.1417 21.1691C15.3627 21.1691 15.5746 21.0813 15.7309 20.925C15.8872 20.7687 15.975 20.5568 15.975 20.3358C15.975 20.1551 15.975 19.7588 15.9831 19.2192V17.2612C15.9899 16.8927 15.9465 16.5251 15.8542 16.1683C15.8278 16.0512 15.7954 15.9355 15.7573 15.8216C17.025 15.611 18.1769 14.9574 19.0078 13.9771C19.8388 12.9968 20.2949 11.7535 20.2951 10.4684C20.3225 10.2029 20.3353 9.93615 20.3333 9.66926C20.3518 8.51824 19.981 7.3947 19.2811 6.48078L19.2811 6.48076Z" fill="white"/>
</svg>
