<svg width="24" height="24" viewBox="0 0 24 24" fill="none" xmlns="http://www.w3.org/2000/svg">
<path d="M3.89994 12.0012C3.89994 10.2912 5.28994 8.90122 6.99994 8.90122H10.9999V7.00122H6.99994C5.67386 7.00122 4.40209 7.528 3.4644 8.46569C2.52672 9.40337 1.99994 10.6751 1.99994 12.0012C1.99994 13.3273 2.52672 14.5991 3.4644 15.5368C4.40209 16.4744 5.67386 17.0012 6.99994 17.0012H10.9999V15.1012H6.99994C5.28994 15.1012 3.89994 13.7112 3.89994 12.0012ZM7.99994 13.0012H15.9999V11.0012H7.99994V13.0012ZM16.9999 7.00122H12.9999V8.90122H16.9999C18.7099 8.90122 20.0999 10.2912 20.0999 12.0012C20.0999 13.7112 18.7099 15.1012 16.9999 15.1012H12.9999V17.0012H16.9999C18.326 17.0012 19.5978 16.4744 20.5355 15.5368C21.4732 14.5991 21.9999 13.3273 21.9999 12.0012C21.9999 10.6751 21.4732 9.40337 20.5355 8.46569C19.5978 7.528 18.326 7.00122 16.9999 7.00122V7.00122Z" fill="white"/>
</svg>
